<?xml version="1.0" encoding="utf-8"?>
<!-- Generator: Adobe Illustrator 25.0.0, SVG Export Plug-In . SVG Version: 6.00 Build 0)  -->
<svg version="1.1" id="Layer_1" xmlns="http://www.w3.org/2000/svg" xmlns:xlink="http://www.w3.org/1999/xlink" x="0px" y="0px"
	 viewBox="0 0 415 90" style="enable-background:new 0 0 415 90;" xml:space="preserve">
<style type="text/css">
	.st0{fill:#F9F9F9;}
	.st1{fill:#F2C577;}
</style>
<g>
	<path class="st0" d="M358.4,73.7c-5.9-0.9-7.5,6.9-7.5,6.9s-0.4,3.5,1.5,4.7c1.9,1.2,8.2,2.1,11,0.4c2.8-1.7,7.8-12-1.2-13.1
		C360.4,72.2,360.2,73.5,358.4,73.7z"/>
	<path class="st0" d="M336.7,22.3c2.5-8.8,16.4-3.8,16.2,0c-0.2,3.8-1.9,22.5-1.9,26.6c1.3,7,10.3,10.9,15,4
		c4.7-6.9,2.7-18.8,3.3-30.6c5.9-11,15.6-3.5,16.1,0c0.7,8.7-2,33.7-2,33.7c-0.2,4-2.5,7-6.8,9.1c-4.3,2.1-10.4,3.2-18.2,3.2
		c-7.9,0-13.9-1.1-18-3.2c-4.1-2.1-6-5.2-5.7-9.3C334.8,55.8,334.2,31.1,336.7,22.3z"/>
	<path class="st0" d="M389.3,65.5c0.1-4.9-0.1-45.5,2.4-45.5c1.2-6.6,13.3-2.3,14,0.7c1,4.5-0.4,38.1-0.9,43.2
		C404.2,69,389.2,70.4,389.3,65.5z"/>
	<path class="st0" d="M316.5,66.3c-17.4,0-32.9,0-32.9,0s-1.7-40.4-2.6-49c6.5,0,25.7,0,33.5,0c11.3,0.3,19.4,12.5,11.4,22.4
		C333.4,41.2,336.3,64.4,316.5,66.3z M296.5,36.6c0,0,19.4,1.3,18.5-7.5c-0.8-4.5-12.3-3-19.6-3C296,29.6,296.5,36.6,296.5,36.6z
		 M298.2,56.6c8.8-0.1,18.5,1.5,18.8-7.2c-0.2-6.7-9.5-4.9-19.9-5.1C297.7,47.5,298.2,54.9,298.2,56.6z"/>
	<path class="st0" d="M249.6,20.7c0.8,1,1.5,7,0.7,15.1c2.4-0.8,12-0.7,12-0.7L262,19.6c0,0,7.8-4.7,11.5-4.2c0.9,0.1,3.6,1.2,4,5.3
		c-0.1,8.5-1.3,20.3-0.6,28.9c0.5,6,1,5.2,1.6,14.5c-2,2-11.6,3.7-15.7-1.7c0-9.3-0.5-10.8-1-14.6c-2.1-1.9-10.8,0.3-10.8,0.3
		s-0.3,4.5,1.5,14.8c-1.8,7-11,5.5-15.7,4.5c-1-2.7-1.6-38.5-0.4-45.4C238.9,17.5,246.5,18.8,249.6,20.7z"/>
	<path class="st0" d="M229.7,61.6c-0.6,1.1-3.3,6.8-17.5,7.3c-17.4-0.2-20.3-10.8-20.9-21c0.2-16.8,9.2-27.2,15.1-30.4
		c7.1-4,23-3.1,25.1,3.2c2.1,6.3-1.2,10.9-3.8,12.2c-2.5,1-19.1-7.8-20.9,9.7c0.1,8,1.1,10.7,7.6,10.9c8-0.5,7.3-2,13-4
		C230.6,48.8,232.6,54.5,229.7,61.6z"/>
	<path class="st0" d="M50.1,25.3c-7.2-14.7-35.5-9.4-35.5-9.4L9,69.2c4.3-0.2,4.7-0.4,10.7-0.8c6-0.4,15.4-1.4,21-7.7
		C53.5,48.5,53.7,32.1,50.1,25.3z M22.9,54l3.1-25.7c1.1-0.4,14.4-2.8,14,6.7C39.7,47.5,26.7,54.5,22.9,54z"/>
	<path class="st0" d="M70.5,20.6c0,0-1.5,21.4-2.3,29.8c1.9,4.5,8.7,0.6,10.1-2.2c1.1-1.5,1.7-24.3,2.6-29.9
		c2.4-3.7,12.1-4.8,13.8,1.1c-1,11.5-1.1,21.8-3,34.3c-1.4,3.7-3,8.6-11.5,12.8c-10.2,4.1-25.8,3.6-26.8-4.5c0,0,2-29.6,3.4-41.9
		C63.5,15.2,70.5,20.6,70.5,20.6z"/>
	<path class="st0" d="M100.7,20.2c0.6-5.7,12-6.7,15.1,0.1c0.2,12.4-3.1,33.5-3.1,33.5s9.5,0,16.1,0.1c5.8,2.5,0.9,11.2-2.9,14.5
		c-10.1,0.1-31.2-0.1-31.2-0.1S99.8,30.5,100.7,20.2z"/>
	<g>
		<path class="st1" d="M166,70.2c2.3-37.5-3.3-56.6-9.3-66.7c-2.6,4.1-1.7,15.2-23,63.9C143.2,65.5,163.6,70.2,166,70.2z"/>
	</g>
	<g>
		<path class="st1" d="M170.3,66.1c6.4-1.3,16.3-3.3,17.3-3.3c-1.2-31.4-16-39.2-16-39.2S174.3,48.8,170.3,66.1z"/>
	</g>
	<g id="_x32__4_">
		<path class="st1" d="M189.1,78.2c0,0-5.6,3.3-27.1-3.7c-3.7-1.3-23.6-3.3-28.4,10c13.4-4.2,23.8-0.5,29,0.2
			C183.7,91.3,189.1,78.2,189.1,78.2z"/>
	</g>
</g>
</svg>
